<?xml version="1.0" encoding="UTF-8"?>
<svg id="Layer_2" data-name="Layer 2" xmlns="http://www.w3.org/2000/svg" viewBox="0 0 381.73 159.08">
  <defs>
    <style>
      .cls-1 {
        fill: #bca0cc;
      }
    </style>
  </defs>
  <g id="Layer_1-2" data-name="Layer 1">
    <g>
      <path class="cls-1" d="M177.53,83.9L32.68,46.05c-.43-8.26-.42-16.19-.24-25.84,27.87,9.11,55,16.03,83.39,22.94,24.47,5.95,47.29,18.51,61.7,40.76Z"/>
      <path class="cls-1" d="M178.69,68.15c-12.16-16.46-29-28.1-49.11-33.34l-50.7-13.21-1.97-21.6c19.23,4.06,37.39,8.26,55.72,13.24,11.94,4.45,22.7,9.76,31.35,18.84,8.98,9.78,15.26,21.45,14.72,36.07Z"/>
    </g>
    <g>
      <path class="cls-1" d="M204.81,83.9l144.85-37.86c.43-8.26.42-16.19.24-25.84-27.87,9.11-55,16.03-83.39,22.94-24.47,5.95-47.29,18.51-61.7,40.76Z"/>
      <path class="cls-1" d="M203.65,68.15c12.16-16.46,29-28.1,49.11-33.34l50.7-13.21L305.44,0c-19.23,4.06-37.39,8.26-55.72,13.24-11.94,4.45-22.7,9.76-31.35,18.84-8.98,9.78-15.26,21.45-14.72,36.07Z"/>
    </g>
    <path class="cls-1" d="M381.7,59.63l-5.14,55.4c-1.22,13.16-10.8,23.99-23.69,26.89-48.86,10.99-103.85,17.16-162.01,17.16s-113.14-6.17-162-17.16c-12.89-2.9-22.46-13.73-23.68-26.88L.03,59.61c-.47-5.06,4.22-8.04,8.8-7.31l174.29,43.22c6.61,1.64,13.93,1.68,20.54-.01l169.26-43.12c4.5-1.14,9.24,2.37,8.78,7.24Z"/>
  </g>
</svg>